<?xml version="1.0" encoding="UTF-8" standalone="no"?>
<!DOCTYPE svg PUBLIC "-//W3C//DTD SVG 1.1//EN" "http://www.w3.org/Graphics/SVG/1.1/DTD/svg11.dtd">
<svg width="100%" height="100%" viewBox="0 0 1280 802" version="1.1" xmlns="http://www.w3.org/2000/svg" xmlns:xlink="http://www.w3.org/1999/xlink" xml:space="preserve" xmlns:serif="http://www.serif.com/" style="fill-rule:evenodd;clip-rule:evenodd;stroke-linejoin:round;stroke-miterlimit:1.41421;">
    <g transform="matrix(1,0,0,1,0,-249.614)">
        <g transform="matrix(1,0,0,1,0,249.614)">
            <g transform="matrix(1,0,0,1,0,-101.127)">
                <path d="M1280,903.082L0,903.082L0,101.127L1280,101.127L1280,903.082ZM1060,821.127L1060,141.127L40,141.127L40,821.127L1060,821.127Z" style="fill:rgb(208,208,208);"/>
            </g>
        </g>
        <g transform="matrix(1,0,0,1,0,249.614)">
            <g id="Shutter-Button-Pressed" serif:id="Shutter Button Pressed" transform="matrix(3.72563,0,0,3.48265,-454.935,-1948.57)">
                <ellipse cx="155.938" cy="741.249" rx="10.736" ry="11.486" style="fill:white;"/>
            </g>
        </g>
        <g transform="matrix(1,0,0,1,0,249.614)">
            <g id="Shutter">
                <g id="Shutter-Border" serif:id="Shutter Border" transform="matrix(1,0,0,1,-20.7302,-96.3894)">
                    <path d="M146.763,679.327C174.359,679.327 196.763,701.731 196.763,729.327C196.763,756.923 174.359,779.327 146.763,779.327C119.167,779.327 96.763,756.923 96.763,729.327C96.763,701.731 119.167,679.327 146.763,679.327ZM146.763,684.327C171.599,684.327 191.763,704.491 191.763,729.327C191.763,754.163 171.599,774.327 146.763,774.327C121.927,774.327 101.763,754.163 101.763,729.327C101.763,704.491 121.927,684.327 146.763,684.327Z" style="fill:rgb(208,208,208);"/>
                </g>
                <g id="Shutter-Button" serif:id="Shutter Button" transform="matrix(3.72563,0,0,3.48265,-454.935,-1948.57)">
                    <ellipse cx="155.938" cy="741.249" rx="10.736" ry="11.486" style="fill:rgb(183,21,21);"/>
                </g>
                <g id="Shutter-Button1" serif:id="Shutter Button" transform="matrix(1,0,0,1,0,-101.127)">
                    <path d="M126.033,694.065C148.109,694.065 166.033,711.988 166.033,734.065C166.033,756.141 148.109,774.065 126.033,774.065C103.956,774.065 86.033,756.141 86.033,734.065C86.033,711.988 103.956,694.065 126.033,694.065ZM126.033,704.065C142.59,704.065 156.033,717.507 156.033,734.065C156.033,750.622 142.59,764.065 126.033,764.065C109.475,764.065 96.033,750.622 96.033,734.065C96.033,717.507 109.475,704.065 126.033,704.065Z" style="fill:rgb(135,38,38);"/>
                </g>
            </g>
        </g>
        <g transform="matrix(1,0,0,1,0,249.614)">
            <g id="Crosshairs">
                <g id="Cross-Hair-Border" serif:id="Cross Hair Border">
                    <g id="Left">
                        <g id="Upper-Left" serif:id="Upper Left" transform="matrix(1.0201,0,0,1,60,60)">
                            <path d="M100,5L5,5L5,100L0,100L0,0L100,0L100,5Z" style="fill:rgb(208,208,208);"/>
                        </g>
                        <g id="Lower-Left" serif:id="Lower Left" transform="matrix(1.0201,0,0,-1,60,700)">
                            <path d="M100,5L5,5L5,100L0,100L0,0L100,0L100,5Z" style="fill:rgb(208,208,208);"/>
                        </g>
                    </g>
                    <g id="Right" transform="matrix(1,0,0,1,-0.887789,-1.99747)">
                        <g id="Upper-Right" serif:id="Upper Right" transform="matrix(-1.0201,0,0,1,1042.9,61.9975)">
                            <path d="M100,5L5,5L5,100L0,100L0,0L100,0L100,5Z" style="fill:rgb(208,208,208);"/>
                        </g>
                        <g id="Lower-Right" serif:id="Lower Right" transform="matrix(-1.0201,0,0,-1,1042.9,701.997)">
                            <path d="M100,5L5,5L5,100L0,100L0,0L100,0L100,5Z" style="fill:rgb(208,208,208);"/>
                        </g>
                    </g>
                </g>
                <g id="Cross-Hairs" serif:id="Cross Hairs" transform="matrix(0.666667,0,0,0.666667,171.085,115.308)">
                    <g transform="matrix(1,0,0,1,108.9,319.439)">
                        <path d="M409.974,75.667L457.474,75.667L457.474,28.167L462.474,28.167L462.474,75.667L509.974,75.667L509.974,80.667L462.474,80.667L462.474,128.167L457.474,128.167L457.474,80.667L409.974,80.667L409.974,75.667Z" style="fill:rgb(208,208,208);"/>
                    </g>
                    <g transform="matrix(1,0,0,1,0,-101.127)">
                        <path d="M498.982,502.645C500.942,538.168 529.439,566.665 564.962,568.625L564.962,573.733C526.624,571.763 495.844,540.984 493.874,502.645L498.982,502.645ZM638.766,502.645L643.874,502.645C641.903,540.983 611.124,571.763 572.785,573.733L572.785,568.625C608.308,566.665 636.805,538.168 638.766,502.645ZM564.962,428.841C529.439,430.802 500.942,459.299 498.982,494.822L493.874,494.822C495.844,456.483 526.623,425.704 564.962,423.733L564.962,428.841ZM572.785,428.841L572.785,423.733C611.123,425.704 641.902,456.483 643.874,494.822L638.766,494.822C636.805,459.299 608.308,430.802 572.785,428.841Z" style="fill:rgb(208,208,208);"/>
                    </g>
                </g>
            </g>
        </g>
        <g transform="matrix(1,0,0,1,0,249.614)">
            <g id="Film" transform="matrix(1,0,0,1,10,0)">
                <g transform="matrix(1,0,0,1,-10,-101.127)">
                    <path d="M1090.48,901.127L1090.48,101.127L1094.9,101.127L1094.9,109.711L1106.9,109.711L1106.9,101.127L1234.9,101.127L1234.9,109.711L1246.9,109.711L1246.9,101.127L1250.48,101.127L1250.48,901.127L1246.9,901.127L1246.9,897.344L1234.9,897.344L1234.9,901.127L1106.9,901.127L1106.9,897.344L1094.9,897.344L1094.9,901.127L1090.48,901.127ZM1106.9,881.344L1094.9,881.344L1094.9,893.344L1106.9,893.344L1106.9,881.344ZM1246.9,881.344L1234.9,881.344L1234.9,893.344L1246.9,893.344L1246.9,881.344ZM1246.9,865.344L1234.9,865.344L1234.9,877.344L1246.9,877.344L1246.9,865.344ZM1106.9,865.344L1094.9,865.344L1094.9,877.344L1106.9,877.344L1106.9,865.344ZM1106.9,849.344L1094.9,849.344L1094.9,861.344L1106.9,861.344L1106.9,849.344ZM1246.9,849.344L1234.9,849.344L1234.9,861.344L1246.9,861.344L1246.9,849.344ZM1106.9,833.344L1094.9,833.344L1094.9,845.344L1106.9,845.344L1106.9,833.344ZM1246.9,833.344L1234.9,833.344L1234.9,845.344L1246.9,845.344L1246.9,833.344ZM1106.9,817.344L1094.9,817.344L1094.9,829.344L1106.9,829.344L1106.9,817.344ZM1246.9,817.344L1234.9,817.344L1234.9,829.344L1246.9,829.344L1246.9,817.344ZM1246.9,801.344L1234.9,801.344L1234.9,813.344L1246.9,813.344L1246.9,801.344ZM1106.9,801.344L1094.9,801.344L1094.9,813.344L1106.9,813.344L1106.9,801.344ZM1246.9,785.344L1234.9,785.344L1234.9,797.344L1246.9,797.344L1246.9,785.344ZM1106.9,785.344L1094.9,785.344L1094.9,797.344L1106.9,797.344L1106.9,785.344ZM1246.9,769.344L1234.9,769.344L1234.9,781.344L1246.9,781.344L1246.9,769.344ZM1106.9,769.344L1094.9,769.344L1094.9,781.344L1106.9,781.344L1106.9,769.344ZM1246.9,753.344L1234.9,753.344L1234.9,765.344L1246.9,765.344L1246.9,753.344ZM1106.9,753.344L1094.9,753.344L1094.9,765.344L1106.9,765.344L1106.9,753.344ZM1246.9,737.344L1234.9,737.344L1234.9,749.344L1246.9,749.344L1246.9,737.344ZM1106.9,737.344L1094.9,737.344L1094.9,749.344L1106.9,749.344L1106.9,737.344ZM1246.9,721.344L1234.9,721.344L1234.9,733.344L1246.9,733.344L1246.9,721.344ZM1106.9,721.344L1094.9,721.344L1094.9,733.344L1106.9,733.344L1106.9,721.344ZM1246.9,705.344L1234.9,705.344L1234.9,717.344L1246.9,717.344L1246.9,705.344ZM1106.9,705.344L1094.9,705.344L1094.9,717.344L1106.9,717.344L1106.9,705.344ZM1106.9,689.344L1094.9,689.344L1094.9,701.344L1106.9,701.344L1106.9,689.344ZM1246.9,689.344L1234.9,689.344L1234.9,701.344L1246.9,701.344L1246.9,689.344ZM1106.9,673.344L1094.9,673.344L1094.9,685.344L1106.9,685.344L1106.9,673.344ZM1246.9,673.344L1234.9,673.344L1234.9,685.344L1246.9,685.344L1246.9,673.344ZM1106.9,657.344L1094.9,657.344L1094.9,669.344L1106.9,669.344L1106.9,657.344ZM1246.9,657.344L1234.9,657.344L1234.9,669.344L1246.9,669.344L1246.9,657.344ZM1106.9,641.711L1094.9,641.711L1094.9,653.344L1106.9,653.344L1106.9,641.711ZM1246.9,641.711L1234.9,641.711L1234.9,653.344L1246.9,653.344L1246.9,641.711ZM1246.9,625.711L1234.9,625.711L1234.9,637.711L1246.9,637.711L1246.9,625.711ZM1106.9,625.711L1094.9,625.711L1094.9,637.711L1106.9,637.711L1106.9,625.711ZM1246.9,609.711L1234.9,609.711L1234.9,621.711L1246.9,621.711L1246.9,609.711ZM1106.9,609.711L1094.9,609.711L1094.9,621.711L1106.9,621.711L1106.9,609.711ZM1246.9,593.711L1234.9,593.711L1234.9,605.711L1246.9,605.711L1246.9,593.711ZM1106.9,593.711L1094.9,593.711L1094.9,605.711L1106.9,605.711L1106.9,593.711ZM1246.9,577.711L1234.9,577.711L1234.9,589.711L1246.9,589.711L1246.9,577.711ZM1106.9,577.711L1094.9,577.711L1094.9,589.711L1106.9,589.711L1106.9,577.711ZM1106.9,561.711L1094.9,561.711L1094.9,573.711L1106.9,573.711L1106.9,561.711ZM1246.9,561.711L1234.9,561.711L1234.9,573.711L1246.9,573.711L1246.9,561.711ZM1106.9,545.711L1094.9,545.711L1094.9,557.711L1106.9,557.711L1106.9,545.711ZM1246.9,545.711L1234.9,545.711L1234.9,557.711L1246.9,557.711L1246.9,545.711ZM1106.9,529.711L1094.9,529.711L1094.9,541.711L1106.9,541.711L1106.9,529.711ZM1246.9,529.711L1234.9,529.711L1234.9,541.711L1246.9,541.711L1246.9,529.711ZM1106.9,513.711L1094.9,513.711L1094.9,525.711L1106.9,525.711L1106.9,513.711ZM1246.9,513.711L1234.9,513.711L1234.9,525.711L1246.9,525.711L1246.9,513.711ZM1106.9,497.711L1094.9,497.711L1094.9,509.711L1106.9,509.711L1106.9,497.711ZM1246.9,497.711L1234.9,497.711L1234.9,509.711L1246.9,509.711L1246.9,497.711ZM1246.9,481.711L1234.9,481.711L1234.9,493.711L1246.9,493.711L1246.9,481.711ZM1106.9,481.711L1094.9,481.711L1094.9,493.711L1106.9,493.711L1106.9,481.711ZM1246.9,465.711L1234.9,465.711L1234.9,477.711L1246.9,477.711L1246.9,465.711ZM1106.9,465.711L1094.9,465.711L1094.9,477.711L1106.9,477.711L1106.9,465.711ZM1246.9,449.711L1234.9,449.711L1234.9,461.711L1246.9,461.711L1246.9,449.711ZM1106.9,449.711L1094.9,449.711L1094.9,461.711L1106.9,461.711L1106.9,449.711ZM1246.9,433.711L1234.9,433.711L1234.9,445.711L1246.9,445.711L1246.9,433.711ZM1106.9,433.711L1094.9,433.711L1094.9,445.711L1106.9,445.711L1106.9,433.711ZM1246.9,417.711L1234.9,417.711L1234.9,429.711L1246.9,429.711L1246.9,417.711ZM1106.9,417.711L1094.9,417.711L1094.9,429.711L1106.9,429.711L1106.9,417.711ZM1106.9,401.711L1094.9,401.711L1094.9,413.711L1106.9,413.711L1106.9,401.711ZM1246.9,401.711L1234.9,401.711L1234.9,413.711L1246.9,413.711L1246.9,401.711ZM1106.9,385.711L1094.9,385.711L1094.9,397.711L1106.9,397.711L1106.9,385.711ZM1246.9,385.711L1234.9,385.711L1234.9,397.711L1246.9,397.711L1246.9,385.711ZM1106.9,369.711L1094.9,369.711L1094.9,381.711L1106.9,381.711L1106.9,369.711ZM1246.9,369.711L1234.9,369.711L1234.9,381.711L1246.9,381.711L1246.9,369.711ZM1246.9,353.711L1234.9,353.711L1234.9,365.711L1246.9,365.711L1246.9,353.711ZM1106.9,353.711L1094.9,353.711L1094.9,365.711L1106.9,365.711L1106.9,353.711ZM1106.9,337.711L1094.9,337.711L1094.9,349.711L1106.9,349.711L1106.9,337.711ZM1246.9,337.711L1234.9,337.711L1234.9,349.711L1246.9,349.711L1246.9,337.711ZM1106.9,321.711L1094.9,321.711L1094.9,333.711L1106.9,333.711L1106.9,321.711ZM1246.9,321.711L1234.9,321.711L1234.9,333.711L1246.9,333.711L1246.9,321.711ZM1246.9,305.711L1234.9,305.711L1234.9,317.711L1246.9,317.711L1246.9,305.711ZM1106.9,305.711L1094.9,305.711L1094.9,317.711L1106.9,317.711L1106.9,305.711ZM1106.9,289.711L1094.9,289.711L1094.9,301.711L1106.9,301.711L1106.9,289.711ZM1246.9,289.711L1234.9,289.711L1234.9,301.711L1246.9,301.711L1246.9,289.711ZM1106.9,273.711L1094.9,273.711L1094.9,285.711L1106.9,285.711L1106.9,273.711ZM1246.9,273.711L1234.9,273.711L1234.9,285.711L1246.9,285.711L1246.9,273.711ZM1106.9,257.711L1094.9,257.711L1094.9,269.711L1106.9,269.711L1106.9,257.711ZM1246.9,257.711L1234.9,257.711L1234.9,269.711L1246.9,269.711L1246.9,257.711ZM1106.9,241.711L1094.9,241.711L1094.9,253.711L1106.9,253.711L1106.9,241.711ZM1246.9,241.711L1234.9,241.711L1234.9,253.711L1246.9,253.711L1246.9,241.711ZM1106.9,225.711L1094.9,225.711L1094.9,237.711L1106.9,237.711L1106.9,225.711ZM1246.9,225.711L1234.9,225.711L1234.9,237.711L1246.9,237.711L1246.9,225.711ZM1106.9,209.711L1094.9,209.711L1094.9,221.711L1106.9,221.711L1106.9,209.711ZM1246.9,209.711L1234.9,209.711L1234.9,221.711L1246.9,221.711L1246.9,209.711ZM1106.9,193.711L1094.9,193.711L1094.9,205.711L1106.9,205.711L1106.9,193.711ZM1246.9,193.711L1234.9,193.711L1234.9,205.711L1246.9,205.711L1246.9,193.711ZM1106.9,177.711L1094.9,177.711L1094.9,189.711L1106.9,189.711L1106.9,177.711ZM1246.9,177.711L1234.9,177.711L1234.9,189.711L1246.9,189.711L1246.9,177.711ZM1106.9,161.711L1094.9,161.711L1094.9,173.711L1106.9,173.711L1106.9,161.711ZM1246.9,161.711L1234.9,161.711L1234.9,173.711L1246.9,173.711L1246.9,161.711ZM1246.9,145.711L1234.9,145.711L1234.9,157.711L1246.9,157.711L1246.9,145.711ZM1106.9,145.711L1094.9,145.711L1094.9,157.711L1106.9,157.711L1106.9,145.711ZM1246.9,129.711L1234.9,129.711L1234.9,141.711L1246.9,141.711L1246.9,129.711ZM1106.9,129.711L1094.9,129.711L1094.9,141.711L1106.9,141.711L1106.9,129.711ZM1246.9,113.711L1234.9,113.711L1234.9,125.711L1246.9,125.711L1246.9,113.711ZM1106.9,113.711L1094.9,113.711L1094.9,125.711L1106.9,125.711L1106.9,113.711Z" style="fill:rgb(105,72,69);"/>
                </g>
                <g transform="matrix(0.849127,0,0,0.966042,156.797,-97.2229)">
                    <rect x="1111.36" y="101.589" width="141.322" height="99.375" style="fill:rgb(64,36,33);"/>
                </g>
                <g transform="matrix(0.849127,0,0,0.966042,156.797,2.7771)">
                    <rect x="1111.36" y="101.589" width="141.322" height="99.375" style="fill:rgb(64,36,33);"/>
                </g>
                <g transform="matrix(0.849127,0,0,0.966042,156.797,102.777)">
                    <rect x="1111.36" y="101.589" width="141.322" height="99.375" style="fill:rgb(64,36,33);"/>
                </g>
                <g transform="matrix(0.849127,0,0,0.966042,156.797,202.777)">
                    <rect x="1111.36" y="101.589" width="141.322" height="99.375" style="fill:rgb(64,36,33);"/>
                </g>
                <g transform="matrix(0.849127,0,0,0.966042,156.797,302.777)">
                    <rect x="1111.36" y="101.589" width="141.322" height="99.375" style="fill:rgb(64,36,33);"/>
                </g>
                <g transform="matrix(0.849127,0,0,0.966042,156.797,402.777)">
                    <rect x="1111.36" y="101.589" width="141.322" height="99.375" style="fill:rgb(64,36,33);"/>
                </g>
                <g transform="matrix(0.849127,0,0,0.966042,156.797,502.777)">
                    <rect x="1111.36" y="101.589" width="141.322" height="99.375" style="fill:rgb(64,36,33);"/>
                </g>
                <g transform="matrix(0.849127,0,0,0.966042,156.797,602.777)">
                    <rect x="1111.36" y="101.589" width="141.322" height="99.375" style="fill:rgb(64,36,33);"/>
                </g>
            </g>
        </g>
    </g>
</svg>
